<?xml version="1.0" encoding="utf-8"?>
<!-- Generator: Adobe Illustrator 19.1.0, SVG Export Plug-In . SVG Version: 6.00 Build 0)  -->
<svg version="1.1" id="Layer_1" xmlns="http://www.w3.org/2000/svg" xmlns:xlink="http://www.w3.org/1999/xlink" x="0px" y="0px"
	 width="100%" height="100%" preserveAspectRatio="xMidYMax meet" viewBox="0 0 80 145" style="enable-background:new 0 0 80 145;" xml:space="preserve">
<style type="text/css">
	.st0{opacity:0.4;}
	.st1{opacity:0.3;}
	.st2{opacity:0.2;}
	.st3{opacity:0.1;}
	.st4{opacity:0.05;}
	.st5{opacity:0.25;}
	.st6{fill:url(#SVGID_1_);}
	.st7{fill:#730000;}
	.st8{fill:url(#SVGID_2_);}
	.st9{opacity:0.05;fill:#993300;}
	.st10{fill:url(#SVGID_3_);}
	.st11{fill:url(#SVGID_4_);}
	.st12{fill:#990000;}
	.st13{fill:url(#SVGID_5_);}
	.st14{fill:url(#SVGID_6_);}
	.st15{fill:url(#SVGID_7_);}
	.st16{fill:url(#SVGID_8_);}
	.st17{fill:url(#SVGID_9_);}
	.st18{fill:#262626;}
	.st19{fill:url(#SVGID_10_);}
	.st20{fill:url(#SVGID_11_);}
	.st21{fill:url(#SVGID_12_);}
	.st22{fill:#333333;}
	.st23{fill:url(#SVGID_13_);}
	.st24{fill:url(#SVGID_14_);}
	.st25{fill:url(#SVGID_15_);}
	.st26{fill:url(#SVGID_16_);}
	.st27{fill:url(#SVGID_17_);}
	.st28{fill:url(#SVGID_18_);}
	.st29{fill:url(#SVGID_19_);}
	.st30{fill:url(#SVGID_20_);}
	.st31{fill:url(#SVGID_21_);}
	.st32{fill:url(#SVGID_22_);}
	.st33{fill:url(#SVGID_23_);}
	.st34{fill:url(#SVGID_24_);}
	.st35{fill:url(#SVGID_25_);}
	.st36{fill:url(#SVGID_26_);}
	.st37{fill:url(#SVGID_27_);}
	.st38{fill:url(#SVGID_28_);}
	.st39{fill:url(#SVGID_29_);}
	.st40{fill:url(#SVGID_30_);}
	.st41{fill:url(#SVGID_31_);}
	.st42{fill:url(#SVGID_32_);}
	.st43{fill:url(#SVGID_33_);}
	.st44{fill:url(#SVGID_34_);}
	.st45{fill:url(#SVGID_35_);}
	.st46{fill:url(#SVGID_36_);}
	.st47{fill:url(#SVGID_37_);}
	.st48{fill:url(#SVGID_38_);}
	.st49{fill:url(#SVGID_39_);}
	.st50{fill:url(#SVGID_40_);}
	.st51{fill:url(#SVGID_41_);}
	.st52{fill:url(#SVGID_42_);}
	.st53{fill:url(#SVGID_43_);}
	.st54{opacity:0.45;}
	.st55{fill:url(#SVGID_44_);}
	.st56{fill:url(#SVGID_45_);}
	.st57{fill:url(#SVGID_46_);}
	.st58{fill:url(#SVGID_47_);}
	.st59{opacity:0.35;fill:url(#SVGID_48_);}
	.st60{fill:url(#SVGID_49_);}
	.st61{fill:#FFFFFF;}
	.st62{fill:#666666;}
	.st63{fill:#FFFF00;}
	.st64{fill:#99FF00;}
	.st65{opacity:0.75;}
	.st66{fill:#FF0000;}
	.st67{fill:#00CC00;}
	.st68{fill:url(#SVGID_50_);}
	.st69{fill:url(#SVGID_51_);}
	.st70{opacity:0.15;fill:#FFFFFF;}
	.st71{fill:url(#SVGID_52_);}
	.st72{fill:url(#SVGID_53_);}
	.st73{fill:url(#SVGID_54_);}
	.st74{fill:url(#SVGID_55_);}
	.st75{fill:#1B1B1B;}
	.st76{fill:url(#SVGID_56_);}
	.st77{fill:url(#SVGID_57_);}
	.st78{fill:url(#SVGID_58_);}
	.st79{fill:#FF9900;}
	.st80{fill:url(#SVGID_59_);}
	.st81{fill:url(#SVGID_60_);}
	.st82{fill:url(#SVGID_61_);}
	.st83{fill:url(#SVGID_62_);}
	.st84{fill:url(#SVGID_63_);}
	.st85{fill:url(#SVGID_64_);}
	.st86{fill:url(#SVGID_65_);}
	.st87{fill:url(#SVGID_66_);}
	.st88{fill:url(#SVGID_67_);}
	.st89{fill:url(#SVGID_68_);}
	.st90{fill:url(#SVGID_69_);}
	.st91{fill:url(#SVGID_70_);}
	.st92{fill:url(#SVGID_71_);}
	.st93{fill:url(#Inside_Line_3_);}
	.st94{fill:url(#);}
	.st95{fill:url(#SVGID_72_);}
	.st96{fill:url(#SVGID_73_);}
	.st97{fill:url(#SVGID_74_);}
	.st98{fill:url(#SVGID_75_);}
	.st99{fill:url(#SVGID_76_);}
	.st100{fill:url(#SVGID_77_);}
	.st101{fill:url(#SVGID_78_);}
	.st102{fill:url(#SVGID_79_);}
	.st103{fill:url(#Inside_Line_4_);}
	.st104{fill:url(#SVGID_80_);}
	.st105{fill:url(#SVGID_81_);}
	.st106{fill:url(#SVGID_82_);}
	.st107{fill:url(#SVGID_83_);}
	.st108{fill:url(#SVGID_84_);}
	.st109{fill:url(#SVGID_85_);}
	.st110{fill:url(#SVGID_86_);}
	.st111{fill:url(#SVGID_87_);}
	.st112{fill:url(#SVGID_88_);}
	.st113{fill:url(#SVGID_89_);}
	.st114{fill:url(#SVGID_90_);}
	.st115{fill:url(#SVGID_91_);}
	.st116{fill:url(#SVGID_92_);}
	.st117{fill:url(#SVGID_93_);}
	.st118{fill:url(#SVGID_94_);}
	.st119{fill:#999999;}
	.st120{fill:url(#SVGID_95_);}
	.st121{opacity:0.5;fill:#FFFFFF;}
	.st122{fill:url(#SVGID_96_);}
	.st123{fill:url(#SVGID_97_);}
	.st124{fill:url(#SVGID_98_);}
	.st125{fill:url(#SVGID_99_);}
	.st126{fill:url(#SVGID_100_);}
	.st127{fill:url(#SVGID_101_);}
	.st128{fill:url(#SVGID_102_);}
	.st129{fill:url(#SVGID_103_);}
	.st130{fill:url(#SVGID_104_);}
	.st131{fill:url(#SVGID_105_);}
	.st132{fill:url(#SVGID_106_);}
	.st133{fill:url(#SVGID_107_);}
	.st134{fill:url(#SVGID_108_);}
	.st135{fill:url(#SVGID_109_);}
	.st136{fill:url(#SVGID_110_);}
	.st137{fill:url(#SVGID_111_);}
	.st138{fill:#73420E;}
	.st139{fill:#F4C990;}
	.st140{fill:#AA772D;}
	.st141{fill:#C18C36;}
	.st142{fill:url(#SVGID_112_);}
	.st143{fill:url(#SVGID_113_);}
	.st144{fill:url(#SVGID_114_);}
	.st145{fill:url(#SVGID_115_);}
	.st146{fill:url(#SVGID_116_);}
	.st147{fill:url(#SVGID_117_);}
</style>
<g>
	<g>
		<g id="Pause_Button_5_">
			<g id="BACK_BTN_7_">
				<path class="st5" d="M63.337,7.844H13.538c-4.83,0-8.756,3.929-8.756,8.757v1.004v9.376v5.831v98.837
					c0,4.83,3.926,8.757,8.756,8.757h49.799c4.827,0,8.756-3.927,8.756-8.757V32.813v-5.831v-9.376v-1.004
					C72.092,11.773,68.163,7.844,63.337,7.844z"/>
				<g>
					<g>
						<g>
							<path d="M16.523,136.555c-4.42,0-8.016-3.596-8.016-8.017V13.491c0-4.421,3.596-8.017,8.016-8.017h49.799
								c4.419,0,8.015,3.596,8.015,8.017v115.048c0,4.421-3.596,8.017-8.015,8.017H16.523z"/>
							<g>
								<path d="M66.321,6.594c3.795,0,6.896,3.104,6.896,6.897v1.004v9.376v5.831v98.836c0,3.793-3.101,6.898-6.896,6.898H16.523
									c-3.795,0-6.896-3.104-6.896-6.898V29.703v-5.831v-9.376v-1.004c0-3.793,3.101-6.897,6.896-6.897H66.321 M66.321,4.355
									H16.523c-5.037,0-9.134,4.098-9.134,9.136v1.004v9.376v5.831v98.836c0,5.038,4.098,9.136,9.134,9.136h49.799
									c5.037,0,9.135-4.098,9.135-9.136V29.703v-5.831v-9.376v-1.004C75.456,8.454,71.358,4.355,66.321,4.355L66.321,4.355z"/>
							</g>
						</g>
						<g>
							<path class="st22" d="M66.321,7.596H16.523c-3.795,0-6.896,3.104-6.896,6.899v15.207h63.591V14.495
								C73.217,10.701,70.116,7.596,66.321,7.596z"/>
							<path class="st62" d="M16.523,7.596h49.799c3.795,0,6.896,3.104,6.896,6.899v-1.004c0-3.793-3.101-6.897-6.896-6.897H16.523
								c-3.795,0-6.896,3.104-6.896,6.897v1.004C9.627,10.701,12.728,7.596,16.523,7.596z"/>
						</g>
					</g>
				</g>
			</g>
		</g>
	</g>
</g>
<path d="M69.263,100.719c0,15.394-12.524,27.918-27.918,27.918c-15.394,0-27.918-12.524-27.918-27.918S25.95,72.801,41.344,72.801
	C56.738,72.801,69.263,85.325,69.263,100.719z M41.344,69.973c15.394,0,27.918-12.524,27.918-27.918S56.738,14.136,41.344,14.136
	c-15.394,0-27.918,12.524-27.918,27.918S25.95,69.973,41.344,69.973z"/>
<g>
	<g>
		<g>
			<linearGradient id="SVGID_1_" gradientUnits="userSpaceOnUse" x1="41.3438" y1="67.8676" x2="41.3438" y2="16.2409">
				<stop  offset="0" style="stop-color:#1A1A1A"/>
				<stop  offset="0.5" style="stop-color:#515151"/>
				<stop  offset="1" style="stop-color:#1A1A1A"/>
			</linearGradient>
			<path class="st6" d="M41.344,67.868c-14.233,0-25.813-11.58-25.813-25.814c0-14.233,11.58-25.813,25.813-25.813
				s25.813,11.58,25.813,25.813C67.157,56.287,55.577,67.868,41.344,67.868z"/>
			<path class="st18" d="M41.344,16.847c13.922,0,25.207,11.286,25.207,25.207c0,13.922-11.286,25.207-25.207,25.207
				c-13.922,0-25.207-11.286-25.207-25.207C16.137,28.132,27.422,16.847,41.344,16.847 M41.344,15.635
				c-14.567,0-26.419,11.851-26.419,26.418s11.851,26.419,26.419,26.419s26.418-11.851,26.418-26.419S55.911,15.635,41.344,15.635
				L41.344,15.635z"/>
		</g>
		<g>
			<linearGradient id="SVGID_2_" gradientUnits="userSpaceOnUse" x1="41.344" y1="59.7263" x2="41.344" y2="24.3816">
				<stop  offset="0" style="stop-color:#5C5C5C"/>
				<stop  offset="1" style="stop-color:#333333"/>
			</linearGradient>
			<circle class="st8" cx="41.344" cy="42.054" r="17.672"/>
			<g>
				<path class="st0" d="M41.344,25.627c9.058,0,16.427,7.369,16.427,16.427c0,9.058-7.369,16.427-16.427,16.427
					s-16.427-7.369-16.427-16.427C24.917,32.996,32.286,25.627,41.344,25.627 M41.344,24.382c-9.76,0-17.672,7.912-17.672,17.672
					s7.912,17.672,17.672,17.672s17.672-7.912,17.672-17.672S51.104,24.382,41.344,24.382L41.344,24.382z"/>
				<path class="st1" d="M41.344,25.627c-9.058,0-16.427,7.369-16.427,16.427s7.369,16.427,16.427,16.427
					s16.427-7.369,16.427-16.427S50.402,25.627,41.344,25.627z M41.344,57.235c-8.371,0-15.181-6.81-15.181-15.181
					c0-8.371,6.81-15.181,15.181-15.181s15.181,6.81,15.181,15.181C56.525,50.425,49.715,57.235,41.344,57.235z"/>
			</g>
			<path class="st2" d="M41.344,26.873c-8.371,0-15.181,6.81-15.181,15.181c0,8.371,6.81,15.181,15.181,15.181
				s15.181-6.81,15.181-15.181C56.525,33.683,49.715,26.873,41.344,26.873z M41.344,55.99c-7.684,0-13.936-6.252-13.936-13.936
				s6.252-13.936,13.936-13.936S55.28,34.37,55.28,42.054S49.028,55.99,41.344,55.99z"/>
			<path class="st3" d="M41.344,28.118c-7.684,0-13.936,6.252-13.936,13.936S33.66,55.99,41.344,55.99S55.28,49.738,55.28,42.054
				S49.028,28.118,41.344,28.118z M41.344,54.744c-6.998,0-12.69-5.693-12.69-12.69s5.693-12.69,12.69-12.69
				s12.69,5.693,12.69,12.69S48.342,54.744,41.344,54.744z"/>
		</g>
	</g>
	<path class="st70" d="M25.981,60.075c-9.93-9.93-9.909-26.049,0.046-36.004c1.173-1.173,2.438-2.197,3.763-3.094
		c-1.821,1.049-3.547,2.325-5.104,3.882c-9.519,9.519-9.538,24.931-0.044,34.426c1.542,1.542,3.252,2.806,5.055,3.846
		C28.389,62.243,27.139,61.233,25.981,60.075z"/>
	<path class="st70" d="M56.271,60.075c9.93-9.93,9.909-26.049-0.046-36.004c-1.173-1.173-2.438-2.197-3.763-3.094
		c1.821,1.049,3.547,2.325,5.104,3.882c9.519,9.519,9.538,24.931,0.044,34.426c-1.542,1.542-3.252,2.806-5.055,3.846
		C53.863,62.243,55.113,61.233,56.271,60.075z"/>
</g>
<g>
	<g>
		<g>
			<linearGradient id="SVGID_3_" gradientUnits="userSpaceOnUse" x1="41.344" y1="126.532" x2="41.344" y2="74.9061">
				<stop  offset="0" style="stop-color:#990000"/>
				<stop  offset="0.5" style="stop-color:#FF3300"/>
				<stop  offset="1" style="stop-color:#990000"/>
			</linearGradient>
			<path class="st10" d="M41.344,126.532c-14.233,0-25.813-11.579-25.813-25.813s11.579-25.813,25.813-25.813
				s25.813,11.579,25.813,25.813S55.577,126.532,41.344,126.532z"/>
			<path class="st7" d="M41.344,75.512c13.922,0,25.207,11.286,25.207,25.207s-11.286,25.207-25.207,25.207
				s-25.207-11.286-25.207-25.207S27.422,75.512,41.344,75.512 M41.344,74.301c-14.567,0-26.418,11.851-26.418,26.418
				s11.851,26.418,26.418,26.418s26.419-11.851,26.419-26.418S55.911,74.301,41.344,74.301L41.344,74.301z"/>
		</g>
		<g>
			<linearGradient id="SVGID_4_" gradientUnits="userSpaceOnUse" x1="41.344" y1="118.3913" x2="41.344" y2="83.0467">
				<stop  offset="0" style="stop-color:#FF0000"/>
				<stop  offset="1" style="stop-color:#990000"/>
			</linearGradient>
			<circle class="st11" cx="41.344" cy="100.719" r="17.672"/>
			<g>
				<path class="st1" d="M41.344,84.292c9.058,0,16.427,7.369,16.427,16.427c0,9.058-7.369,16.427-16.427,16.427
					s-16.427-7.369-16.427-16.427C24.917,91.661,32.286,84.292,41.344,84.292 M41.344,83.047c-9.76,0-17.672,7.912-17.672,17.672
					s7.912,17.672,17.672,17.672s17.672-7.912,17.672-17.672S51.104,83.047,41.344,83.047L41.344,83.047z"/>
				<path class="st2" d="M41.344,84.292c-9.058,0-16.427,7.369-16.427,16.427s7.369,16.427,16.427,16.427
					s16.427-7.369,16.427-16.427S50.402,84.292,41.344,84.292z M41.344,115.9c-8.371,0-15.181-6.81-15.181-15.181
					c0-8.371,6.81-15.181,15.181-15.181s15.181,6.81,15.181,15.181C56.525,109.09,49.715,115.9,41.344,115.9z"/>
			</g>
			<path class="st3" d="M41.344,85.538c-8.371,0-15.181,6.81-15.181,15.181c0,8.371,6.81,15.181,15.181,15.181
				s15.181-6.81,15.181-15.181C56.525,92.348,49.715,85.538,41.344,85.538z M41.344,114.655c-7.684,0-13.936-6.252-13.936-13.936
				s6.252-13.936,13.936-13.936s13.936,6.252,13.936,13.936S49.028,114.655,41.344,114.655z"/>
			<path class="st9" d="M41.344,86.783c-7.684,0-13.936,6.252-13.936,13.936s6.252,13.936,13.936,13.936s13.936-6.252,13.936-13.936
				S49.028,86.783,41.344,86.783z M41.344,113.409c-6.998,0-12.69-5.693-12.69-12.69s5.693-12.69,12.69-12.69
				s12.69,5.693,12.69,12.69S48.342,113.409,41.344,113.409z"/>
		</g>
	</g>
	<linearGradient id="SVGID_5_" gradientUnits="userSpaceOnUse" x1="24.9813" y1="121.9686" x2="23.5112" y2="79.8685">
		<stop  offset="0" style="stop-color:#DA1501"/>
		<stop  offset="0.5" style="stop-color:#FD4B00"/>
		<stop  offset="1" style="stop-color:#DA1501"/>
	</linearGradient>
	<path class="st13" d="M26.199,118.74c-9.93-9.93-9.909-26.049,0.046-36.004c1.173-1.173,2.438-2.197,3.763-3.094
		c-1.821,1.049-3.547,2.325-5.104,3.882c-9.519,9.519-9.538,24.931-0.044,34.426c1.542,1.542,3.252,2.806,5.055,3.846
		C28.607,120.908,27.357,119.898,26.199,118.74z"/>
	<linearGradient id="SVGID_6_" gradientUnits="userSpaceOnUse" x1="59.2212" y1="121.5712" x2="57.7508" y2="79.4646">
		<stop  offset="0" style="stop-color:#DA1501"/>
		<stop  offset="0.5" style="stop-color:#FD4B00"/>
		<stop  offset="1" style="stop-color:#DA1501"/>
	</linearGradient>
	<path class="st14" d="M56.489,118.74c9.93-9.93,9.909-26.049-0.046-36.004c-1.173-1.173-2.438-2.197-3.763-3.094
		c1.821,1.049,3.547,2.325,5.104,3.882c9.519,9.519,9.538,24.931,0.044,34.426c-1.542,1.542-3.252,2.806-5.055,3.846
		C54.081,120.908,55.331,119.898,56.489,118.74z"/>
</g>
</svg>
