<?xml version="1.0" encoding="utf-8"?>
<!-- Generator: Adobe Illustrator 18.1.1, SVG Export Plug-In . SVG Version: 6.00 Build 0)  -->
<svg version="1.1" id="Layer_1" xmlns="http://www.w3.org/2000/svg" xmlns:xlink="http://www.w3.org/1999/xlink" x="0px" y="0px"
	 width="70px" height="70px" viewBox="0 0 70 70" style="enable-background:new 0 0 70 70;" xml:space="preserve">
<style type="text/css">
	.st0{opacity:0.4;}
	.st1{opacity:0.3;}
	.st2{opacity:0.2;}
	.st3{opacity:0.1;}
	.st4{opacity:0.05;}
	.st5{fill:url(#);}
	.st6{fill:#73420E;}
	.st7{fill:#F4C990;}
	.st8{fill:#AA772D;}
	.st9{fill:#C18C36;}
	.st10{opacity:0.25;}
	.st11{fill:url(#SVGID_1_);}
	.st12{fill:#730000;}
	.st13{fill:url(#SVGID_2_);}
	.st14{opacity:0.05;fill:#993300;}
	.st15{fill:url(#SVGID_3_);}
	.st16{fill:url(#SVGID_4_);}
	.st17{fill:#990000;}
	.st18{fill:url(#SVGID_5_);}
	.st19{fill:url(#SVGID_6_);}
	.st20{fill:url(#SVGID_7_);}
	.st21{fill:url(#SVGID_8_);}
	.st22{fill:url(#SVGID_9_);}
	.st23{fill:#262626;}
	.st24{fill:url(#SVGID_10_);}
	.st25{fill:url(#SVGID_11_);}
	.st26{fill:url(#SVGID_12_);}
	.st27{fill:#333333;}
	.st28{fill:url(#SVGID_13_);}
	.st29{fill:url(#SVGID_14_);}
	.st30{fill:url(#SVGID_15_);}
	.st31{fill:url(#SVGID_16_);}
	.st32{fill:#086700;}
	.st33{fill:url(#SVGID_17_);}
	.st34{fill:url(#SVGID_18_);}
	.st35{fill:url(#SVGID_19_);}
	.st36{fill:url(#SVGID_20_);}
	.st37{fill:url(#SVGID_21_);}
	.st38{fill:url(#SVGID_22_);}
	.st39{fill:url(#SVGID_23_);}
	.st40{fill:url(#SVGID_24_);}
	.st41{fill:url(#SVGID_25_);}
	.st42{fill:url(#SVGID_26_);}
	.st43{fill:url(#SVGID_27_);}
	.st44{fill:url(#SVGID_28_);}
	.st45{fill:url(#SVGID_29_);}
	.st46{fill:url(#SVGID_30_);}
	.st47{fill:url(#SVGID_31_);}
	.st48{fill:url(#SVGID_32_);}
	.st49{fill:url(#SVGID_33_);}
	.st50{fill:url(#SVGID_34_);}
	.st51{fill:url(#SVGID_35_);}
	.st52{fill:url(#SVGID_36_);}
	.st53{fill:url(#SVGID_37_);}
	.st54{fill:url(#SVGID_38_);}
	.st55{fill:url(#SVGID_39_);}
	.st56{fill:url(#SVGID_40_);}
	.st57{fill:url(#SVGID_41_);}
	.st58{fill:url(#SVGID_42_);}
	.st59{fill:url(#SVGID_43_);}
	.st60{opacity:0.45;}
	.st61{fill:url(#SVGID_44_);}
	.st62{fill:url(#SVGID_45_);}
	.st63{fill:url(#SVGID_46_);}
	.st64{fill:url(#SVGID_47_);}
	.st65{opacity:0.35;fill:url(#SVGID_48_);}
	.st66{fill:url(#SVGID_49_);}
	.st67{fill:#FFFFFF;}
	.st68{fill:#666666;}
	.st69{fill:#FFFF00;}
	.st70{fill:#99FF00;}
	.st71{opacity:0.75;}
	.st72{fill:#FF0000;}
	.st73{display:none;fill:url(#SVGID_50_);}
	.st74{display:none;fill:url(#SVGID_51_);}
	.st75{fill:url(#Inside_Line_1_);}
	.st76{clip-path:url(#SVGID_52_);}
	.st77{fill:url(#SVGID_53_);}
	.st78{fill:#999999;}
	.st79{fill:url(#SVGID_54_);}
	.st80{opacity:0.5;fill:#FFFFFF;}
	.st81{fill:url(#SVGID_55_);}
	.st82{fill:url(#SVGID_56_);}
	.st83{opacity:0.15;fill:#FFFFFF;}
	.st84{fill:url(#SVGID_57_);}
	.st85{fill:url(#SVGID_58_);}
	.st86{fill:url(#SVGID_59_);}
	.st87{fill:url(#SVGID_60_);}
	.st88{fill:url(#SVGID_61_);}
	.st89{fill:url(#SVGID_62_);}
	.st90{fill:url(#SVGID_63_);}
	.st91{fill:url(#SVGID_64_);}
	.st92{fill:url(#SVGID_65_);}
	.st93{fill:url(#SVGID_66_);}
	.st94{fill:url(#SVGID_67_);}
	.st95{fill:url(#SVGID_68_);}
	.st96{fill:url(#SVGID_69_);}
	.st97{fill:url(#SVGID_70_);}
	.st98{fill:url(#SVGID_71_);}
	.st99{fill:url(#SVGID_72_);}
	.st100{fill:url(#SVGID_73_);}
	.st101{fill:url(#SVGID_74_);}
	.st102{fill:url(#SVGID_75_);}
	.st103{fill:url(#SVGID_76_);}
	.st104{fill:url(#SVGID_77_);}
	.st105{fill:url(#SVGID_78_);}
	.st106{fill:url(#SVGID_79_);}
	.st107{fill:url(#SVGID_80_);}
	.st108{fill:url(#SVGID_81_);}
	.st109{fill:url(#SVGID_82_);}
	.st110{fill:#00CC00;}
	.st111{fill:url(#SVGID_83_);}
	.st112{fill:url(#SVGID_84_);}
	.st113{fill:url(#SVGID_86_);}
	.st114{fill:url(#SVGID_87_);}
	.st115{fill:url(#SVGID_88_);}
	.st116{fill:url(#SVGID_89_);}
	.st117{fill:#1B1B1B;}
	.st118{fill:url(#SVGID_90_);}
	.st119{fill:url(#SVGID_91_);}
	.st120{fill:url(#SVGID_92_);}
	.st121{fill:#FF9900;}
	.st122{fill:url(#SVGID_93_);}
	.st123{fill:url(#SVGID_94_);}
	.st124{fill:url(#SVGID_95_);}
	.st125{fill:url(#SVGID_96_);}
	.st126{fill:url(#SVGID_97_);}
	.st127{fill:url(#SVGID_98_);}
	.st128{fill:url(#SVGID_99_);}
	.st129{fill:url(#SVGID_100_);}
	.st130{fill:url(#SVGID_101_);}
	.st131{fill:url(#SVGID_102_);}
	.st132{fill:url(#SVGID_103_);}
	.st133{fill:url(#SVGID_104_);}
	.st134{fill:url(#SVGID_105_);}
</style>
<g>
	<path class="st10" d="M34,3.152c-18.04,0-32.716,14.676-32.716,32.716c0,18.04,14.676,32.716,32.716,32.716
		c18.04,0,32.716-14.676,32.716-32.716C66.716,17.828,52.04,3.152,34,3.152z"/>
	<g>
		<g>
			<g>
				<linearGradient id="SVGID_1_" gradientUnits="userSpaceOnUse" x1="36" y1="66.0981" x2="36" y2="2.1655">
					<stop  offset="0" style="stop-color:#990000"/>
					<stop  offset="0.5" style="stop-color:#FF3300"/>
					<stop  offset="1" style="stop-color:#990000"/>
				</linearGradient>
				<path class="st11" d="M36,66.098c-17.626,0-31.966-14.34-31.966-31.966S18.374,2.166,36,2.166s31.966,14.34,31.966,31.966
					S53.626,66.098,36,66.098z"/>
				<path class="st12" d="M36,2.916c17.24,0,31.216,13.976,31.216,31.216S53.24,65.348,36,65.348S4.784,51.372,4.784,34.132
					S18.76,2.916,36,2.916 M36,1.416c-18.04,0-32.716,14.676-32.716,32.716S17.96,66.848,36,66.848s32.716-14.676,32.716-32.716
					S54.04,1.416,36,1.416L36,1.416z"/>
			</g>
			<g>
				<linearGradient id="SVGID_2_" gradientUnits="userSpaceOnUse" x1="36" y1="56.0169" x2="36" y2="12.2466">
					<stop  offset="0" style="stop-color:#FF0000"/>
					<stop  offset="1" style="stop-color:#990000"/>
				</linearGradient>
				<circle class="st13" cx="36" cy="34.132" r="21.885"/>
				<g>
					<path class="st1" d="M36,13.789c11.217,0,20.343,9.126,20.343,20.343c0,11.217-9.126,20.343-20.343,20.343
						s-20.343-9.126-20.343-20.343C15.657,22.915,24.783,13.789,36,13.789 M36,12.247c-12.087,0-21.885,9.798-21.885,21.885
						S23.913,56.017,36,56.017s21.885-9.798,21.885-21.885S48.087,12.247,36,12.247L36,12.247z"/>
					<path class="st2" d="M36,13.789c-11.217,0-20.343,9.126-20.343,20.343S24.783,54.475,36,54.475s20.343-9.126,20.343-20.343
						S47.217,13.789,36,13.789z M36,52.932c-10.367,0-18.8-8.434-18.8-18.8c0-10.367,8.434-18.8,18.8-18.8s18.8,8.434,18.8,18.8
						C54.8,44.498,46.367,52.932,36,52.932z"/>
				</g>
				<path class="st3" d="M36,15.331c-10.367,0-18.8,8.434-18.8,18.8c0,10.367,8.434,18.8,18.8,18.8s18.8-8.434,18.8-18.8
					C54.8,23.765,46.367,15.331,36,15.331z M36,51.39c-9.516,0-17.258-7.742-17.258-17.258S26.484,16.874,36,16.874
					s17.258,7.742,17.258,17.258S45.516,51.39,36,51.39z"/>
				<path class="st14" d="M36,16.874c-9.516,0-17.258,7.742-17.258,17.258S26.484,51.39,36,51.39s17.258-7.742,17.258-17.258
					S45.516,16.874,36,16.874z M36,49.847c-8.666,0-15.716-7.05-15.716-15.716S27.334,18.416,36,18.416s15.716,7.05,15.716,15.716
					S44.666,49.847,36,49.847z"/>
			</g>
		</g>
		<linearGradient id="SVGID_3_" gradientUnits="userSpaceOnUse" x1="15.7367" y1="60.447" x2="13.9161" y2="8.3109">
			<stop  offset="0" style="stop-color:#DA1501"/>
			<stop  offset="0.5" style="stop-color:#FD4B00"/>
			<stop  offset="1" style="stop-color:#DA1501"/>
		</linearGradient>
		<path class="st15" d="M17.245,56.449C4.948,44.152,4.973,24.19,17.301,11.862c1.453-1.453,3.02-2.721,4.66-3.832
			c-2.255,1.298-4.393,2.88-6.321,4.808C3.853,24.625,3.828,43.712,15.586,55.47c1.91,1.91,4.027,3.475,6.26,4.763
			C20.227,59.134,18.679,57.883,17.245,56.449z"/>
		<linearGradient id="SVGID_4_" gradientUnits="userSpaceOnUse" x1="58.1388" y1="59.9547" x2="56.3179" y2="7.8107">
			<stop  offset="0" style="stop-color:#DA1501"/>
			<stop  offset="0.5" style="stop-color:#FD4B00"/>
			<stop  offset="1" style="stop-color:#DA1501"/>
		</linearGradient>
		<path class="st16" d="M54.755,56.449c12.297-12.297,12.271-32.259-0.057-44.587c-1.453-1.453-3.02-2.721-4.66-3.832
			c2.255,1.298,4.393,2.88,6.321,4.808c11.788,11.788,11.812,30.875,0.054,42.632c-1.91,1.91-4.027,3.475-6.26,4.763
			C51.773,59.134,53.321,57.883,54.755,56.449z"/>
	</g>
</g>
</svg>
